<mxfile host="app.diagrams.net" modified="2023-02-22T17:16:52.645Z" agent="5.0 (Windows NT 10.0) AppleWebKit/537.36 (KHTML, like Gecko) Chrome/110.0.0.0 Safari/537.36 Edg/110.0.1587.50" etag="x5VS_xhkuRudGpxJrSp9" version="20.8.22" type="github">
  <diagram name="Page-1" id="7e0a89b8-554c-2b80-1dc8-d5c74ca68de4">
    <mxGraphModel dx="605" dy="429" grid="1" gridSize="10" guides="1" tooltips="1" connect="1" arrows="1" fold="1" page="1" pageScale="1" pageWidth="1100" pageHeight="850" background="none" math="0" shadow="0">
      <root>
        <mxCell id="0" />
        <mxCell id="1" parent="0" />
        <mxCell id="295mJumc4yY-vUVJhrtn-11" value="Red Pitaya" style="whiteSpace=wrap;html=1;aspect=fixed;" vertex="1" parent="1">
          <mxGeometry x="230" y="240" width="80" height="80" as="geometry" />
        </mxCell>
        <mxCell id="295mJumc4yY-vUVJhrtn-13" style="edgeStyle=orthogonalEdgeStyle;rounded=0;orthogonalLoop=1;jettySize=auto;html=1;exitX=0;exitY=0.25;exitDx=0;exitDy=0;entryX=1;entryY=0.25;entryDx=0;entryDy=0;startArrow=none;startFill=0;endArrow=block;endFill=0;" edge="1" parent="1" source="295mJumc4yY-vUVJhrtn-12" target="295mJumc4yY-vUVJhrtn-11">
          <mxGeometry relative="1" as="geometry" />
        </mxCell>
        <mxCell id="295mJumc4yY-vUVJhrtn-16" value="5 [V], 1.1 [A]&lt;br&gt;MicroUSB to USB A" style="edgeLabel;html=1;align=center;verticalAlign=middle;resizable=0;points=[];" vertex="1" connectable="0" parent="295mJumc4yY-vUVJhrtn-13">
          <mxGeometry relative="1" as="geometry">
            <mxPoint as="offset" />
          </mxGeometry>
        </mxCell>
        <mxCell id="295mJumc4yY-vUVJhrtn-15" style="edgeStyle=orthogonalEdgeStyle;rounded=0;orthogonalLoop=1;jettySize=auto;html=1;exitX=0;exitY=0.75;exitDx=0;exitDy=0;entryX=1;entryY=0.75;entryDx=0;entryDy=0;startArrow=classic;startFill=1;endArrow=classic;endFill=1;" edge="1" parent="1" source="295mJumc4yY-vUVJhrtn-12" target="295mJumc4yY-vUVJhrtn-11">
          <mxGeometry relative="1" as="geometry">
            <Array as="points">
              <mxPoint x="380" y="300" />
              <mxPoint x="380" y="300" />
            </Array>
          </mxGeometry>
        </mxCell>
        <mxCell id="295mJumc4yY-vUVJhrtn-17" value="USB A to USB C&lt;br&gt;Serial Com" style="edgeLabel;html=1;align=center;verticalAlign=middle;resizable=0;points=[];" vertex="1" connectable="0" parent="295mJumc4yY-vUVJhrtn-15">
          <mxGeometry relative="1" as="geometry">
            <mxPoint as="offset" />
          </mxGeometry>
        </mxCell>
        <mxCell id="295mJumc4yY-vUVJhrtn-12" value="SAGE IO" style="whiteSpace=wrap;html=1;aspect=fixed;" vertex="1" parent="1">
          <mxGeometry x="440" y="240" width="80" height="80" as="geometry" />
        </mxCell>
        <mxCell id="295mJumc4yY-vUVJhrtn-20" style="edgeStyle=orthogonalEdgeStyle;rounded=0;orthogonalLoop=1;jettySize=auto;html=1;exitX=0.75;exitY=1;exitDx=0;exitDy=0;entryX=0.75;entryY=0;entryDx=0;entryDy=0;startArrow=classic;startFill=1;endArrow=classic;endFill=1;" edge="1" parent="1" source="295mJumc4yY-vUVJhrtn-19" target="295mJumc4yY-vUVJhrtn-12">
          <mxGeometry relative="1" as="geometry" />
        </mxCell>
        <mxCell id="295mJumc4yY-vUVJhrtn-24" value="Ethernet" style="edgeLabel;html=1;align=center;verticalAlign=middle;resizable=0;points=[];" vertex="1" connectable="0" parent="295mJumc4yY-vUVJhrtn-20">
          <mxGeometry x="-0.324" y="2" relative="1" as="geometry">
            <mxPoint x="13" y="-2" as="offset" />
          </mxGeometry>
        </mxCell>
        <mxCell id="295mJumc4yY-vUVJhrtn-21" style="edgeStyle=orthogonalEdgeStyle;rounded=0;orthogonalLoop=1;jettySize=auto;html=1;exitX=0.25;exitY=1;exitDx=0;exitDy=0;entryX=0.25;entryY=0;entryDx=0;entryDy=0;startArrow=none;startFill=0;endArrow=block;endFill=0;" edge="1" parent="1" source="295mJumc4yY-vUVJhrtn-19" target="295mJumc4yY-vUVJhrtn-12">
          <mxGeometry relative="1" as="geometry" />
        </mxCell>
        <mxCell id="295mJumc4yY-vUVJhrtn-23" value="24[V] to 50[V], 40[W]" style="edgeLabel;html=1;align=center;verticalAlign=middle;resizable=0;points=[];rotation=0;" vertex="1" connectable="0" parent="295mJumc4yY-vUVJhrtn-21">
          <mxGeometry x="-0.2211" y="1" relative="1" as="geometry">
            <mxPoint x="14" y="-107" as="offset" />
          </mxGeometry>
        </mxCell>
        <mxCell id="295mJumc4yY-vUVJhrtn-25" value="Vin" style="edgeLabel;html=1;align=center;verticalAlign=middle;resizable=0;points=[];" vertex="1" connectable="0" parent="295mJumc4yY-vUVJhrtn-21">
          <mxGeometry x="-0.3099" y="2" relative="1" as="geometry">
            <mxPoint x="-7" y="-3" as="offset" />
          </mxGeometry>
        </mxCell>
        <mxCell id="295mJumc4yY-vUVJhrtn-19" value="13 Pin&lt;br&gt;Bulkhead" style="whiteSpace=wrap;html=1;aspect=fixed;" vertex="1" parent="1">
          <mxGeometry x="450" y="90" width="60" height="60" as="geometry" />
        </mxCell>
      </root>
    </mxGraphModel>
  </diagram>
</mxfile>
